<svg width="32" height="32" viewBox="0 0 32 32" fill="none" xmlns="http://www.w3.org/2000/svg">
<rect x="0.5" y="0.5" width="31" height="31" stroke="#B4BDC4"/>
<path fill-rule="evenodd" clip-rule="evenodd" d="M16.6665 11.3333C16.6665 10.9651 16.368 10.6666 15.9998 10.6666C15.6316 10.6666 15.3332 10.9651 15.3332 11.3333V15.3333H11.3332C10.965 15.3333 10.6665 15.6318 10.6665 16C10.6665 16.3681 10.965 16.6666 11.3332 16.6666H15.3332V20.6666C15.3332 21.0348 15.6316 21.3333 15.9998 21.3333C16.368 21.3333 16.6665 21.0348 16.6665 20.6666V16.6666H20.6665C21.0347 16.6666 21.3332 16.3681 21.3332 16C21.3332 15.6318 21.0347 15.3333 20.6665 15.3333H16.6665V11.3333Z" fill="#313237"/>
</svg>
